<?xml version="1.0" encoding="UTF-8"?>
<svg width="580" height="580" version="1.1" viewBox="0 0 580 580" xmlns="http://www.w3.org/2000/svg">
 <path d="m290 37.46c-138.9 0-252.5 113.6-252.5 252.5 0 138.9 113.6 252.5 252.5 252.5 138.9 0 252.5-113.6 252.5-252.5 0-138.9-113.6-252.5-252.5-252.5zm26.4 52.3c32.1 4.239 61.89 16.05 87.48 33.63-30.81 27.16-80.63 83.23-86.78 166-7.287 0.3321-26.73 1.148-52.35 0.0633 1.381-61.66 11.94-148.6 51.64-199.7zm-59.23 0.9376c-35.54 69.01-42.44 147.2-42.87 194.2-9.308-1.345-17.95-2.922-26.08-4.638-3.655-78.56-20.46-129.3-26.76-145.8 26.96-22.34 59.78-37.8 95.7-43.74zm184.5 66.27c21.13 24.05 36.67 53.09 44.54 85.09-36.23 29.34-108.5 41.01-118 42.44 7.909-66.89 51.28-109.7 73.5-127.5zm-319.1 20.3c5.334 19.35 11.39 48.65 14.24 87.74-16-6.351-32.2-14.19-43.01-22.95 5.762-23.44 15.6-45.32 28.78-64.79zm-34.41 120.7c16.79 9.292 32.21 15.4 50.09 21.19-1.075 33.99-7.986 63.81-14.64 85.08-21.04-30.5-33.91-66.98-35.45-106.3zm403.7 0c-1.932 49.34-21.74 94.27-53.14 128.5-21.32-11.46-60.56-39.12-69.47-91.05 60.39-8.285 99.61-24.68 122.6-37.41zm-303.6 33.77c8.832 1.645 18.15 3.108 27.97 4.349 6.182 73.2 25.92 124 40.99 153.2-35.6-5.883-68.14-21.13-94.96-43.14 8.391-20.73 22.67-62.66 26-114.5zm130.6 8.158c9.134 61.86 48.75 99.83 79.35 120.5-24.28 15.51-52.04 25.97-81.8 29.9-30.76-43.37-43.09-98.26-49.15-150.2 18.63 0.6555 34.58 0.5536 51.61-0.2124z"/>
</svg>
