<?xml version="1.0" encoding="UTF-8" standalone="no"?>
<svg
   width="580"
   height="580"
   viewBox="0 0 580 580"
   xmlns="http://www.w3.org/2000/svg">
  <path
     d="M 290,37.463216 C 151.10493,37.463216 37.463216,151.10493 37.463216,290 37.463216,428.89506 151.10493,542.53679 290,542.53679 428.89506,542.53679 542.53679,428.89506 542.53679,290 542.53679,151.10493 428.89506,37.463216 290,37.463216 Z m 26.39506,52.299857 c 32.10182,4.239269 61.89219,16.051957 87.47897,33.629257 -30.80715,27.15888 -80.63018,83.23288 -86.77634,165.99767 -7.28691,0.33207 -26.73406,1.14754 -52.34504,0.0633 1.38133,-61.65712 11.93983,-148.5819 51.64241,-199.690174 z m -59.22678,0.937601 c -35.53585,69.009286 -42.44203,147.212606 -42.86515,194.182076 -9.30754,-1.34474 -17.9532,-2.92168 -26.08103,-4.63828 -3.6547,-78.56429 -20.45691,-129.28337 -26.7588,-145.80206 26.96293,-22.34046 59.77987,-37.804421 95.70498,-43.741736 z m 184.4898,66.266676 c 21.13318,24.04607 36.67123,53.09043 44.53701,85.0864 -36.23091,29.33897 -108.52854,41.01497 -118.03787,42.44492 7.90869,-66.88882 51.2768,-109.66248 73.50086,-127.53132 z m -319.07457,20.29503 c 5.33358,19.34759 11.39228,48.64693 14.23566,87.73878 -15.99582,-6.35127 -32.20164,-14.19169 -43.014262,-22.94741 5.76201,-23.43837 15.597702,-45.31966 28.778602,-64.79137 z M 88.174814,297.9323 c 16.790066,9.29157 32.213036,15.4027 50.094816,21.18744 -1.07516,33.98827 -7.98596,63.807 -14.6446,85.07737 C 102.58605,373.69922 89.712998,337.21447 88.174814,297.9323 Z m 403.650376,0 c -1.93188,49.33623 -21.74422,94.27172 -53.14031,128.45537 -21.32075,-11.45824 -60.56001,-39.11966 -69.4658,-91.04862 60.38549,-8.28525 99.6057,-24.67902 122.60611,-37.40675 z m -303.61438,33.76932 c 8.83157,1.64506 18.14639,3.10823 27.97203,4.3491 6.18183,73.20281 25.92429,124.00044 40.98544,153.24861 -35.59708,-5.88311 -68.13715,-21.12601 -94.95942,-43.13853 8.39148,-20.72783 22.67024,-62.66199 26.00195,-114.45918 z m 130.64008,8.15823 c 9.13412,61.86076 48.75464,99.83136 79.3456,120.47336 -24.28042,15.51316 -52.03938,25.97343 -81.80143,29.90372 -30.75871,-43.37339 -43.08732,-98.25752 -49.15044,-150.16471 18.63394,0.6555 34.58266,0.55356 51.60627,-0.21237 z"/>
</svg>
