<?xml version="1.0" encoding="UTF-8"?>
<svg id="bubbletea" width="15" height="15" version="1.1" viewBox="0 0 15 15" xmlns="http://www.w3.org/2000/svg">
 <circle cx="6.951" cy="11.72" r=".7202"/>
 <circle cx="4.752" cy="12.01" r=".7202"/>
 <circle cx="5.195" cy="13.87" r=".7202"/>
 <circle cx="7.239" cy="13.74" r=".7202"/>
 <circle cx="8.693" cy="12.3" r=".7202"/>
 <circle cx="10.15" cy="11.13" r=".7202"/>
 <circle cx="9.482" cy="13.89" r=".7202"/>
 <rect x="1.458" y="7.049" width="12.16" height="1.849" ry=".9243" fill="none" stroke="#000" stroke-linejoin="round" stroke-width=".4"/>
 <path d="m1.521 7.818v0.401h12.09v-0.401z"/>
 <path d="m4.422 0.2686-1.211 0.5078c-0.103 0.0433-0.151 0.1631-0.106 0.2656l1.124 2.555c-0.697 0.804-1.409 1.934-1.387 3.437l3.33-6e-3 -2.619-5.961 0.84-0.3512 2.726 6.326s3.471-0.045 5.141-0.063c-0.11-3.488-3.389-5.737-6.623-4.39l-0.955-2.215c-0.044-0.1022-0.162-0.1462-0.26-0.1054z"/>
 <path d="m3.529 14.78h0.825s-0.747-3.83-0.726-4.15c0.022-0.32 0.118-0.926 0.79-0.735 0.672 0.195 1.871 0.735 3.258 0.645l-0.637-1.459-4.441-2e-3z"/>
 <path d="m8.04 9.037 0.607 1.443c0.806-0.16 1.493-0.43 2.093-0.615 0.6-0.188 0.72 0.475 0.72 0.845s-0.71 4.07-0.71 4.07h0.82l0.93-5.733z"/>
</svg>
