<svg width="48" height="48" viewBox="0 0 48 48" xmlns="http://www.w3.org/2000/svg">
<path d="M 22.956419,0.33469447 V 2.0061427 l 4.240789,1.6714574 -12.433552,4.9005328 -0.02858,-4.0661496 -1.364873,0.034989 -0.09075,1.9771422 -1.449658,0.045131 -0.09262,-1.9804128 -1.503112,0.038531 V 17.049226 l 20.454298,6.650977 16.339407,-2.932308 -0.01086,-8.3591 -1.965421,8.81e-4 -0.0774,2.420762 -2.223578,-0.0031 -0.123653,-2.416258 -2.152115,0.0015 0.0329,5.314008 -19.671559,-5.691719 10.601875,-8.357261 z m 8.652712,17.18956853 -0.0417,5.757314 -20.19358,8.107391 -0.247696,-10.007012 -3.2869154,0.09996 -0.1544915,4.284553 -3.4289146,0.05463 L 4.1136382,21.5201 0.89488407,21.57101 0.90822707,47.522884 10.176,47.580054 47.010932,26.14887 l 0.01997,-7.021641 -11.986136,0.730653 z" />
</svg>