<?xml version="1.0" encoding="UTF-8" standalone="no"?>
<svg
   width="48"
   height="48"
   viewBox="0 0 48 48"
   version="1.1"
   xmlns="http://www.w3.org/2000/svg">
  <path
     d="m 23.78784,1.9265198 c -0.264858,0.028888 -0.519252,0.1197325 -0.742515,0.2651866 L 2.6784483,15.769599 c -0.3798035,0.253208 -0.6434705,0.646947 -0.7329854,1.094478 -0.089525,0.447621 0.00245,0.912443 0.255639,1.292256 0.2531993,0.379814 0.6469018,0.643489 1.094505,0.733051 0.4476024,0.08947 0.9124341,-0.0025 1.2922297,-0.255667 L 24.000001,5.6922602 43.412165,18.633717 c 0.188039,0.125331 0.398925,0.212434 0.620643,0.256303 0.221718,0.04388 0.449988,0.0437 0.671617,-6.36e-4 0.221622,-0.04442 0.432324,-0.131884 0.620093,-0.25767 0.187859,-0.125785 0.348962,-0.287339 0.474376,-0.475381 0.125335,-0.188041 0.212436,-0.398927 0.256306,-0.620644 0.04387,-0.221717 0.04372,-0.449896 -6.37e-4,-0.671612 -0.04431,-0.221626 -0.131884,-0.432331 -0.257668,-0.620098 C 45.67111,16.056211 45.50965,15.89502 45.321516,15.769599 L 24.954676,2.1917064 C 24.610815,1.9646013 24.19605,1.8703445 23.78784,1.9265198 Z" />
  <path
     d="M 24.000032,9.5644636 3.633174,22.293806 V 40.96336 c 0,2.810607 2.2793896,5.091762 5.091683,5.091762 h 30.55035 c 2.810597,0 5.091664,-2.281155 5.091664,-5.091762 V 22.293806 Z M 20.605559,20.596524 h 6.788947 v 6.788946 h 6.788946 v 6.788946 H 27.394506 V 40.96336 H 20.605559 V 34.174416 H 13.816613 V 27.38547 h 6.788946 z" />
</svg>