<?xml version="1.0" encoding="UTF-8"?>
<svg width="48" height="48" version="1.1" viewBox="0 0 48 48" xmlns="http://www.w3.org/2000/svg">
<path d="m18.8 8.815c2.36 0 4.27-1.92 4.27-4.274 0-2.353-1.91-4.271-4.27-4.271s-4.27 1.918-4.27 4.271c0 2.354 1.91 4.274 4.27 4.274z"/>
<path d="m37.02 11.39c-0.54-0.87-1.61-1.05-2.46-0.49l-4.08 2.76-4.27-4.275c-0.39-0.38-1.04-0.57-1.62-0.469l-8.74 1.794c-0.57 0.1-1.04 0.58-1.22 1.05l-2.95 7.51-5.518-1.43c-0.948-0.19-1.892 0.38-2.081 1.33s0.375 1.9 1.234 2.17l7.035 1.81c0.09 0 0.28 0.1 0.37 0.1 0.67 0 1.32-0.48 1.62-1.13l1.04-2.58v8.36l-2.75 7.69c-0.19 0.38-0.19 0.86 0 1.33l3.84 9.71c0.29 0.65 0.94 1.13 1.61 1.13 0.19 0 0.47 0 0.66-0.1 0.85-0.38 1.33-1.45 0.95-2.25l-2.98-9.34 3.61-7.98 1.04 7.88c0 0.39 0.09 0.77 0.38 1.05l5.77 7.74c0.37 0.48 0.85 0.7 1.41 0.7 0.39 0 0.77-0.11 1.05-0.38 0.76-0.59 0.94-1.71 0.39-2.46l-5.29-7.31v-22.32l4.07 4.18c0.58 0.57 1.54 0.67 2.21 0.19l5.19-3.51c0.75-0.57 1.07-1.6 0.48-2.46z"/>
<path d="m45.87 24.01c-1.94 0-2.58-0.94-4.4-0.94-0.37 0-0.43 0.27-0.43 0.94v6.65c0 1.33-0.22 3.79-3.81 3.79-3.26 0-3.8-2.08-3.8-2.84 0-1.71 1.01-2.85 3.8-2.85 1.88 0 1.88-0.86 1.88-1.91v-6.63c0-0.48 0.22-0.95 0.97-0.95 3.21 0 2.25 0.95 5.68 0.95 0.59 0 0.97 0.17 0.97 0.95v1.98c0.1 0.86-0.86 0.86-0.86 0.86z"/>
</svg>
