<?xml version="1.0" encoding="UTF-8" standalone="no"?>
<svg
   version="1.1"
   width="15"
   height="15"
   viewBox="0 0 15 15"
   xmlns="http://www.w3.org/2000/svg">

  <path
     d="m 10.3,1.46 c -0.39,0 -0.7,-0 -0.8,0.78 l -0.4,2.52 2.4,1.98 h 2 C 14.9,6.74 15,5.78 15,5.78 L 13.1,3.56 C 12.4,2.86 11.7,2.74 11,2.74 v -0.5 c 0,0 0.1,-0.78 -0.7,-0.78 z M 4.75,1.74 c 0,0 -0.95,0 -1.55,0.22 C 2.6,2.16 2,2.86 2,3.86 v 3.9 c 0,1.7 -0.7,1.98 -1,1.98 0,0 -1,0 -1,1.06 V 13 c 0,0 0,0.8 0.801,0.8 H 1 1.5 2 V 13.3 13.1 C 2,12.7 1.8,12.5 1.5,12.4 v -1.1 c 1,0 1.1,-0.2 1.5,-0.3 l 0.55,2.2 c 0.1,0.3 0.2,0.5 0.5,0.6 h 1 L 6,13.7 V 12.9 C 6,12.3 5,12.2 5,12.2 V 9.74 h 3.5 l 0.7,2.66 c 0.4,1.4 1.3,1.3 1.3,1.3 h 0.5 1 v -0.8 c 0,-0.7 -1,-0.7 -1,-0.7 L 11.1,8.16 8,5.74 H 3.5 v -2 c 0,-0.4 0.28,-0.49 0.5,-0.5 0.49,-0 0.75,0 0.75,0 C 5.16,3.24 5.5,2.9 5.5,2.49 5.5,2.08 5.16,1.74 4.75,1.74 Z m 7.05,2.5 c 0.1,0 0.2,0.11 0.2,0.25 0,0.14 -0.1,0.25 -0.2,0.25 -0.2,0 -0.3,-0.11 -0.3,-0.25 0,-0.14 0.1,-0.25 0.3,-0.25 z"
     style="fill-opacity:0.5" />
  <path d="m 0,1.8295 0.595,-0.66 13.305,11.2595 -0.6,0.6 z" />
  <path d="M 12.2,1.34 0,13 0.66,13.7 12.8,1.95 Z" />
</svg>
