<?xml version="1.0" encoding="UTF-8"?>
<svg overflow="inherit" version="1.2" viewBox="0 0 50 50" xmlns="http://www.w3.org/2000/svg">
 <path d="m0.7915 26.09-0.0564-0.17c0-0.14 0.0987-0.26 0.2397-0.26l6.851 0.02c0.582 0 0.941-0.81 0.239-1.24l-6.216-3.15c-0.113-0.08-0.183-0.21-0.183-0.36 0-0.11 0.042-0.24 0.112-0.31 0 0 9.962-14.55 36.05-0.47l9.92-5.14c0.1-0.06 0.21-0.09 0.34-0.09 0.41 0 0.76 0.37 0.76 0.81 0 0.17-0.04 0.31-0.11 0.42l-5.85 7.74 5.85 7.74c0.07 0.11 0.11 0.27 0.11 0.42 0 0.45-0.35 0.83-0.76 0.83-0.13 0-0.24-0.03-0.34-0.08l-9.92-5.16s-18.13 14.6-37.01-1.54zm11.03-3.16c1.31 0 2.35-1.11 2.35-2.49 0-1.41-1.04-2.51-2.35-2.51-1.3 0-2.345 1.11-2.345 2.52 0 1.38 1.045 2.49 2.345 2.49z" stroke-width="1.41"/>
</svg>
