<?xml version="1.0" encoding="UTF-8"?>
<svg width="580" height="580" version="1.1" viewBox="0 0 580 580" xmlns="http://www.w3.org/2000/svg">
 <path d="m430.3 390.2c-6.357-2e-3 -11.63 0.738-12.62 0.886l-0.311 0.049-291.4 50.17c-25.59 4.698-44.11 26.94-44.11 52.91 0 29.65 24.13 53.78 53.78 53.78h294.6c43.5 0 78.89-35.39 78.89-78.89s-35.39-78.89-78.89-78.89zm-2e-3 30.03c26.99 0 48.86 21.88 48.86 48.86s-21.88 48.86-48.86 48.86-48.86-21.88-48.86-48.86 21.88-48.86 48.86-48.86zm-294.6 53.19c11.48 0 20.78 9.305 20.78 20.78 0 11.48-9.305 20.78-20.78 20.78s-20.78-9.305-20.78-20.78c0-11.48 9.305-20.78 20.78-20.78z"/>
 <path d="m278.9 119.8c-3.602-9.068-13.82-13.52-22.91-10.04l-43.98 17.47c-0.928 0.205-1.853 0.464-2.766 0.827-4.629 1.84-8.051 5.406-9.836 9.663-1.868 4.219-2.114 9.154-0.274 13.78 0.362 0.912 0.807 1.762 1.296 2.578l17.49 43.98c3.703 8.998 13.96 13.37 23.02 9.771s13.52-13.83 10.04-22.91l-11.96-30.12 30.11-11.97c8.997-3.701 13.37-13.96 9.77-23.02z"/>
 <path d="m355.7 312.4c-0.564-0.981-1.217-1.877-1.909-2.728l-27.29-47.29c-5.725-9.657-18.16-12.94-27.91-7.322-9.751 5.621-13.14 18.03-7.645 27.82l18.67 32.39-32.38 18.68c-9.656 5.726-12.94 18.16-7.321 27.91 5.622 9.753 18.03 13.14 27.83 7.645l47.31-27.26c1.025-0.389 2.036-0.838 3.017-1.404 4.975-2.87 8.288-7.509 9.619-12.66 1.432-5.129 0.889-10.8-1.981-15.78z"/>
 <path d="m344.2 104c23.47 0 42.5-19.03 42.5-42.5s-19.03-42.5-42.5-42.5-42.5 19.03-42.5 42.5 19.03 42.5 42.5 42.5z"/>
 <path d="m405.2 155.6c-4.604-8.222-14.96-11.19-23.21-6.695l-27.31 15.28-19.85-35.45c-1.398-6.18-5.61-11.63-11.88-14.34-10.34-4.458-22.31 0.247-26.88 10.5l-107.2 248.6c-4.492 10.42 0.309 22.5 10.73 26.99 10.42 4.49 22.5-0.309 26.99-10.73l93.54-216.9 11.6 20.74c0.313 0.862 0.68 1.713 1.142 2.541 2.353 4.199 6.204 7.022 10.51 8.189 4.278 1.251 9.034 0.856 13.23-1.493 0.826-0.463 1.583-0.998 2.302-1.569l39.88-22.34c8.145-4.689 11.03-15.07 6.425-23.29z"/>
</svg>
