<?xml version="1.0" encoding="UTF-8"?>
<svg width="580" height="580" version="1.1" viewBox="0 0 580 580" xmlns="http://www.w3.org/2000/svg">
 <g stroke-width="1.14">
  <path d="m365 96.5c0-45.8-70.4-46.5-70.3 0-0.1 47 70.3 45.1 70.3 0z"/>
  <path d="m38 342h95.1c6.1 0 21-1.5 27.3-8.3l46.7-52 54.7 52.4-22.1 98.2c-0.7 2.2-1.1 3.9-1.1 5.3 0 25.1 38.3 34.6 45.3 4.7l26.7-119c3.2-12.5 1.7-21.8-4.2-27.8l-47.8-47.8 52-60.3 33.5 33.5c7.7 7.6 19.2 7.1 29.5-2.6l54.6-54.6c15-18.6-12.5-39.5-25.7-25.7l-45.2 45.2-54.6-54.6c-4.2-4.3-9.4-6.4-15.8-6.4h-85.5c-5.2 0-9.9 2.1-13.7 6.4l-58.8 67.6c-19.1 16.1 8 43.5 25.2 24.7l54.6-63.6 31.5 0.6-120 140-81.3-0.6c-32.4 0-29.9 45.2-0.53 45.2z"/>
  <path d="m571 167c14-9.2-0.6-33-15.4-23.3l-129 84.2c-3.9 2.6-5.6 7.5-4.1 11.9l83.2 240h-478c-25.3 0-25.3 38.7 0 38.7h520c25.3 0 25.3-38.7 0-38.7h-6.1l-82.9-239z"/>
 </g>
</svg>
