<?xml version="1.0" encoding="UTF-8"?>
<svg width="580" height="580" version="1.1" viewBox="0 0 580 580" xmlns="http://www.w3.org/2000/svg">
 <path d="m545.6 204.8c1.7-7.8-8.6-18.4-8.6-18.4-3-15.2-18-25.7-18-25.7l-4.1-0.8-7.1-37.9-7.4 13.5-1.6-13.5-17.4 32.1c-28.4-3-50.5 2.6-67 10.5-1.1-0.2-2.2-0.4-3.4-0.6-9.9-1.6-23.8-1.6-42 0-9.5-17.3-17.5-30.7-24.2-41.1-6.8-10.3-9.4-15.3-15.6-20.3-6.5-5.26-14-10.24-21.9-10.35-7.8-0.17-13.5 1.7-24.6 9.95-11.4 8.3-30.6 27.6-42.4 39.4-11.9 11.5-21.6 21-27.8 29.9-6.2 8.7-9 14.7-8.9 22.8 0.1 7.2 2 14.7 7.8 22-16.2-2.8-60.1-7.7-85.8 18.2-9.3-9.8-52.49-50.6-85.62-14-15.34 19.2-1.29 51.4-0.65 65.8 0.65 14.4-8.95 47.9-35.78 60.7 0 0 87.06-5.8 72.84-72.2-1.56-10.1-9.28-40.5 40.31-28.7-9.4 16.1-13.5 40-7.4 75 0 0 13.4 53.7-16.29 87.2l-5.76 98.8s11.55 5.7 9.59 20.1c0 0-1.92 11.5 1.86 14.4h25l-11.5-17.3s-24.95-60.4 18.2-120.8c0 0 11.5-13.4 17.2-18.2l-16.3 37.4s17.3 63.3 16.3 86.3c0 0-0.9 9.6 13.5 11.5 0 0-2.9 16.3 2.8 19.1h25.9s-24.9-28.7-25.9-31.6c0 0-13.4-68-4.8-88.2 0 0 29.8-64.2 45.1-78.6 0 0 14.4-7.6 23.9-5.7 0 0 32.5 10.7 70.7 15 0.3 3.5 1 6.6 2.2 9.2 3.9 7.8 14.5 10.6 21 10.8 6.5-0.1 14.2 0 17.4-10.3 0.7-2.3 1.1-5.1 1.4-8.1 4.4-0.3 8.7-0.7 12.9-1.3 0 0 12.5 49.9 0 81.5 0 0-2.9 69-7.7 73.8 0 0 6.7 10.5 6.7 17.3 0 0-1.9 16.2 3.9 16.2h24.9s-22.1-16.2-15.3-44c0 0 0-41.3 7.6-48.9 0 0 5.8 48.9 1.9 63.2 0 0 11.5 12.5 12.5 18.2l2.9 15.4h26.8l-22-32.6s-9.6-60.4 2.8-102.6c0 0 8.7-26.8 12.5-48.8 0 0 27.1-22.5 27.7-66.5l1.2 1.7c6.3-37.1 34.5-55.5 34.5-55.5 14.1 17.6 39 17.3 39 17.3 14.7 8.7 24.8 24.9 24.8 24.9 16 18.6 24.4 3.4 24.4 3.4 8.8 2.8 12.1-6.4 12.1-6.4 9.6-16.2-29.3-73.6-29.3-73.6zm-213 17.6s-4.4 0.9-12.6 1.6l-43.1-24.8 44.3-43.1c6.3 10 11.4 18.1 16 24.5 4.4 6.2 5.4 10.6 11.2 13.2 5.6 2.4 11.9 1.7 23.7 1.7 1 0 2.2 0 3.5 0.1z" stroke-width="1.16"/>
 <path d="m367.1 107.8c21.2 0 38.4-15.96 38.4-35.64s-17.2-35.64-38.4-35.64-38.4 15.97-38.4 35.64c0 19.68 17.2 35.64 38.4 35.64z" stroke-width="1.16"/>
</svg>
