<?xml version="1.0" encoding="UTF-8" standalone="no"?>
<svg
   width="48"
   height="48"
   viewBox="0 0 48 48"
   version="1.1"
   xmlns="http://www.w3.org/2000/svg">
  <path d="M 46.527899,16.103229 C 46.465412,8.7212845 40.59116,3.3760734 32.514373,3.3760734 c -8.120553,0 -14.014039,5.4024329 -14.014039,12.8462326 0,0.259267 0.17105,0.488189 0.420402,0.560592 0.05428,0.01573 0.109161,0.02334 0.163527,0.02334 0.195584,0 0.383644,-0.09865 0.492805,-0.270381 0.01282,-0.02043 1.347114,-2.06525 4.178542,-2.06525 1.559024,0 3.010085,0.776606 3.881918,2.076962 0.216612,0.324063 0.778315,0.324063 0.995013,0 0.871747,-1.300356 2.322808,-2.076962 3.881832,-2.076962 1.55911,0 3.010171,0.776606 3.881918,2.076962 0.216612,0.324063 0.778401,0.324063 0.995013,0 0.871833,-1.300356 2.322808,-2.076962 3.881918,-2.076962 2.34794,0 4.211196,2.112608 4.229917,2.133636 0.109759,0.126086 0.264482,0.19678 0.424504,0.201396 0.316541,0.0076 0.612566,-0.251061 0.612566,-0.58333 0,-0.04086 -0.0041,-0.08112 -0.01231,-0.119077 z" />
  <path d="M 32.520186,11.201252 V 1.9977582" />
  <path d="m 32.519531,1.1308594 a 0.86751002,0.86751002 0 0 0 -0.867187,0.8671875 v 9.2031251 a 0.86751002,0.86751002 0 0 0 0.867187,0.867187 0.86751002,0.86751002 0 0 0 0.869141,-0.867187 V 1.9980469 A 0.86751002,0.86751002 0 0 0 32.519531,1.1308594 Z" />
  <path d="m 11.237937,26.660111 c -1.2961671,0 -2.4084616,0.787548 -2.8845121,1.910356 l -0.2473,3.018805 v 3.312863 c 0,0.403048 0.076763,0.787804 0.2154152,1.1417 H 1.5570507 v 2.289983 0.916113 7.93916 h 2.1181637 v -7.93916 H 25.394047 v 7.93916 h 2.117907 v -7.93916 h 1.71e-4 v -3.206096 h -6.764463 c 0.138652,-0.353896 0.215329,-0.738652 0.215329,-1.1417 v -3.312778 l -0.247214,-3.019061 c -0.476051,-1.122552 -1.588345,-1.910185 -2.884512,-1.910185 z m -0.659325,4.203502 h 0.741815 v 5.180222 h -0.741815 z m 7.170163,0 h 0.741729 v 5.180222 h -0.741729 z" />
  <path d="m 14.534644,17.663621 c -2.116625,0 -3.83251,1.715799 -3.83251,3.832339 0,2.116625 1.715885,3.832338 3.83251,3.832338 2.116625,0 3.832338,-1.715713 3.832338,-3.832338 0,-2.11654 -1.715713,-3.832339 -3.832338,-3.832339 z" />
  <path d="m 32.580078,16.175781 a 1.06853,1.06853 0 0 0 -1.068359,1.06836 v 17.910156 l 0.01563,0.08984 c 0,0 0.171315,1.117522 0.923828,2.167968 0.752513,1.050447 2.322376,2.050536 4.417969,1.632813 2.200403,-0.438605 3.245282,-2.28555 3.595703,-3.765625 0.35042,-1.480075 0.1875,-2.8125 0.1875,-2.8125 a 1.06853,1.06853 0 0 0 -1.181641,-0.941406 1.06853,1.06853 0 0 0 -0.941406,1.18164 c 0,0 0.104578,1.027914 -0.144531,2.080078 -0.24911,1.052165 -0.66889,1.910017 -1.933594,2.16211 -1.369428,0.272973 -1.840497,-0.193259 -2.261719,-0.78125 -0.409622,-0.571799 -0.533696,-1.209545 -0.541016,-1.246094 V 17.244141 a 1.06853,1.06853 0 0 0 -1.068359,-1.06836 z" />
</svg>
