<?xml version="1.0" encoding="UTF-8" standalone="no"?>
<svg
   width="48"
   height="48"
   viewBox="0 0 48 48"
   version="1.1"
   xmlns="http://www.w3.org/2000/svg">
  <path
     d="M 38.099421,18.629313 H 9.9005803 C 9.1271677,18.629313 8.5,19.322209 8.5,20.176956 v 24.763316 c 0,0.854747 0.6271677,1.547643 1.4005803,1.547643 H 38.099421 c 0.773406,0 1.400579,-0.692896 1.400579,-1.547643 V 20.176956 c 0,-0.854747 -0.627173,-1.547643 -1.400579,-1.547643 z m -4.482723,2.259538 c 0.734899,0 1.330539,0.595642 1.330539,1.330439 0,0.734899 -0.59564,1.330644 -1.330539,1.330644 -0.734694,0 -1.33044,-0.595745 -1.33044,-1.330644 0,-0.734694 0.595746,-1.330439 1.33044,-1.330439 z m -14.42543,0 c 0.734899,0 1.330539,0.595642 1.330539,1.330439 0,0.734899 -0.59554,1.330644 -1.330539,1.330644 -0.734799,0 -1.33044,-0.595745 -1.33044,-1.330644 0,-0.734694 0.595641,-1.330439 1.33044,-1.330439 z m -4.122771,0 c 0.734694,0 1.330544,0.595642 1.330544,1.330439 0,0.734899 -0.595745,1.330644 -1.330544,1.330644 -0.734898,0 -1.330544,-0.595745 -1.330544,-1.330644 0,-0.734694 0.595646,-1.330439 1.330544,-1.330439 z M 36.17724,41.968736 c 0,0.99873 -0.809662,1.808493 -1.808491,1.808493 H 13.631252 c -0.998829,0 -1.808493,-0.809763 -1.808493,-1.808493 V 28.224188 c 0,-0.99873 0.809664,-1.808494 1.808493,-1.808494 h 20.737497 c 0.998829,0 1.808491,0.809764 1.808491,1.808494 z" />
  <path
     d="m 21.864022,18.365653 c 0,-0.630848 -0.489979,-1.142123 -1.094414,-1.142123 h -8.316184 c -0.604544,0 -1.094412,0.511387 -1.094412,1.142123 0,0.631073 0.489978,1.142235 1.094412,1.142235 h 8.316184 c 0.604435,0 1.094414,-0.511274 1.094414,-1.142235 z" />
  <path
     d="m 36.93881,18.365653 c 0,-0.630848 -0.489978,-1.142123 -1.094309,-1.142123 h -8.316396 c -0.604545,0 -1.094524,0.511387 -1.094524,1.142123 0,0.631073 0.490193,1.142235 1.094524,1.142235 h 8.316183 c 0.604544,0 1.094522,-0.511274 1.094522,-1.142235 z" />
  <path
     d="M 8,10.136747 H 40 L 30.178426,1.0417384 H 18.291988 Z" />
</svg>