<?xml version="1.0" encoding="UTF-8"?>
<svg width="48" height="48" version="1.1" viewBox="0 0 48 48" xmlns="http://www.w3.org/2000/svg">
 <path d="m17.1 9.57c-2.83 0-5.2 2.29-5.2 5.2v15.09c0 2.2 1.74 4 3.93 4.06l-2.33 3.96 21.21-0.01-2.35-3.95c2.16-0.07 3.9-1.86 3.9-4.06v-15.09c0-2.85-2.33-5.2-5.21-5.2zm-1.14 4.06h16.24v8.11h-16.24zm4.06 14.21c0 2.65-4.06 2.65-4.06 0 0-2.66 4.06-2.66 4.06 0zm12.18 0c0 2.65-4.06 2.65-4.06 0 0-2.66 4.06-2.66 4.06 0z" fill="#fff"/>
 <circle cx="24" cy="24" r="22.19" fill="none" stroke="#fff" stroke-width="3.615"/>
</svg>
