<?xml version="1.0" encoding="UTF-8" standalone="no"?>
<svg
   width="48"
   height="48"
   version="1.1"
   viewBox="0 0 48 48"
   id="svg6"
   sodipodi:docname="metro.svg"
   inkscape:version="1.2.2 (b0a8486541, 2022-12-01)"
   xmlns:inkscape="http://www.inkscape.org/namespaces/inkscape"
   xmlns:sodipodi="http://sodipodi.sourceforge.net/DTD/sodipodi-0.dtd"
   xmlns="http://www.w3.org/2000/svg"
   xmlns:svg="http://www.w3.org/2000/svg">
  <defs
     id="defs10" />
  <path
     d="m17.1 9.57c-2.83 0-5.2 2.29-5.2 5.2v15.09c0 2.2 1.74 4 3.93 4.06l-2.33 3.96 21.21-0.01-2.35-3.95c2.16-0.07 3.9-1.86 3.9-4.06v-15.09c0-2.85-2.33-5.2-5.21-5.2zm-1.14 4.06h16.24v8.11h-16.24zm4.06 14.21c0 2.65-4.06 2.65-4.06 0 0-2.66 4.06-2.66 4.06 0zm12.18 0c0 2.65-4.06 2.65-4.06 0 0-2.66 4.06-2.66 4.06 0z"
     id="path2" />
  <circle
     cx="24"
     cy="24"
     r="22.19"
     fill="none"
     stroke="black"
     stroke-width="3.615"
     id="circle4" />
</svg>
