<?xml version="1.0" encoding="UTF-8"?>
<!-- Created with Inkscape (http://www.inkscape.org/) -->
<svg width="16" height="16" version="1.1" viewBox="0 0 16 16" xmlns="http://www.w3.org/2000/svg">
 <path d="m4.084 0.6133c-0.801 0-1.447 0.5817-1.447 1.305v12.29c0 0.73 0.646 1.31 1.447 1.31h8.266c0.8 0 1.45-0.58 1.45-1.31v-12.29c0-0.723-0.65-1.305-1.45-1.305zm0.566 1.787h2.313c0.311 0 0.56 0.25 0.56 0.561v2.137c0 0.31-0.249 0.56-0.56 0.56h-2.313c-0.31 0-0.56-0.25-0.56-0.56v-2.137c0-0.311 0.25-0.561 0.56-0.561zm-0.046 4.676h7.616c0.81 0 0.69 1.481 0 1.481h-7.616c-0.832-0.203-0.698-1.481 0-1.481zm0.027 2.629h7.609c0.72 0 0.7 1.485 0 1.485h-7.609c-0.621 0-0.635-1.485 0-1.485zm-0.012 2.735h7.611c0.78 0 0.69 1.47 0 1.47h-7.611c-0.701 0-0.631-1.47 0-1.47z" fill-rule="evenodd"/>
</svg>
