<?xml version="1.0" encoding="UTF-8"?>
<svg width="48" height="48" version="1.1" viewBox="0 0 48 48" xmlns="http://www.w3.org/2000/svg">
 <path d="m20 32c1.105 0 2-0.8954 2-2s-0.8954-2-2-2-2 0.8954-2 2 0.8954 2 2 2z"/>
 <path d="m28 32c1.105 0 2-0.8954 2-2s-0.8954-2-2-2-2 0.8954-2 2 0.8954 2 2 2z"/>
 <path d="m10 6s4-6 14-6 14 6 14 6l-3.352 10.06c3.284 2.93 5.352 7.195 5.352 11.94 0 8.837-7.163 16-16 16s-16-7.163-16-16c0-4.748 2.068-9.013 5.352-11.94l-3.352-10.06zm26 22c0 6.627-5.373 12-12 12s-12-5.373-12-12l8e-4 -0.1417c0.653 0.0934 1.32 0.1417 1.999 0.1417 5.4 0 10.09-3.057 12.42-7.534 2.143 3.43 5.55 5.99 9.569 7.027 7e-3 0.1681 0.0105 0.337 0.0105 0.5068zm-14-24v4h-4v4h4v4h4v-4h4v-4h-4v-4h-4z" clip-rule="evenodd" fill-rule="evenodd"/>
</svg>
