<?xml version="1.0" encoding="UTF-8" standalone="no"?>
<svg
   width="48"
   height="48"
   viewBox="0 0 48 48"
   xmlns="http://www.w3.org/2000/svg">
<path d="M 5.92,9.13 18.1,46.2 c 0.2,0.7 2.4,0.1 2.4,-0.6 L 8.76,8.39 Z" />
<path d="M 5.55,8.37 C 3.11,5.68 4.07,2.99 4.72,0.872 5.7,1.9 6.46,2.43 8.06,4.25 9.21,5.55 8.48,6.49 8.57,7.66 Z" />
<path d="m 22.6,4.51 c -2.7,-0 -5.5,0.79 -6.5,4.08 -2,6.61 1.4,6.71 -0.6,9.21 -1.7,2.2 -3.9,0.1 -6.6,-1 C 6.16,15.7 1.95,14.7 3.69,26.5 5.43,38.3 22.6,45.1 33,42.5 43.4,39.9 48.1,33.7 45.1,21.1 42.2,8.59 27.5,5.37 27.5,5.37 c 0,0 -2.3,-0.84 -4.9,-0.86 z m 2.7,3.96 a 3.6,3.6 0 0 1 3.6,3.63 3.6,3.6 0 0 1 -3.6,3.6 3.6,3.6 0 0 1 -3.6,-3.6 3.6,3.6 0 0 1 3.6,-3.63 z m 10.1,6.43 a 3.6,3.6 0 0 1 3.6,3.6 3.6,3.6 0 0 1 -3.6,3.6 3.6,3.6 0 0 1 -3.6,-3.6 3.6,3.6 0 0 1 3.6,-3.6 z m -23.7,7.8 a 3.6,3.6 0 0 1 3.6,3.6 3.6,3.6 0 0 1 -3.6,3.6 3.6,3.6 0 0 1 -3.62,-3.6 3.6,3.6 0 0 1 3.62,-3.6 z m 28,2.2 a 3.6,3.6 0 0 1 3.6,3.6 3.6,3.6 0 0 1 -3.6,3.6 3.6,3.6 0 0 1 -3.6,-3.6 3.6,3.6 0 0 1 3.6,-3.6 z m -19.4,4.8 a 3.6,3.6 0 0 1 3.6,3.6 3.6,3.6 0 0 1 -3.6,3.6 3.6,3.6 0 0 1 -3.6,-3.6 3.6,3.6 0 0 1 3.6,-3.6 z m 10.8,2.2 a 3.6,3.6 0 0 1 3.6,3.6 3.6,3.6 0 0 1 -3.6,3.6 3.6,3.6 0 0 1 -3.5,-3.6 3.6,3.6 0 0 1 3.5,-3.6 z" />
</svg>
