<?xml version="1.0" encoding="UTF-8" standalone="no"?>
<!-- Created with Inkscape (http://www.inkscape.org/) -->

<svg
   width="210mm"
   height="210mm"
   viewBox="0 0 210 210"
   version="1.1"
   id="svg1"
   inkscape:version="1.2.2 (b0a8486541, 2022-12-01)"
   sodipodi:docname="pins.svg"
   xml:space="preserve"
   xmlns:inkscape="http://www.inkscape.org/namespaces/inkscape"
   xmlns:sodipodi="http://sodipodi.sourceforge.net/DTD/sodipodi-0.dtd"
   xmlns="http://www.w3.org/2000/svg"
   xmlns:svg="http://www.w3.org/2000/svg"><sodipodi:namedview
     id="namedview1"
     pagecolor="#ffffff"
     bordercolor="#666666"
     borderopacity="1.0"
     inkscape:showpageshadow="2"
     inkscape:pageopacity="0.0"
     inkscape:pagecheckerboard="0"
     inkscape:deskcolor="#d1d1d1"
     inkscape:document-units="mm"
     inkscape:zoom="0.46522791"
     inkscape:cx="514.80145"
     inkscape:cy="467.5128"
     inkscape:window-width="1920"
     inkscape:window-height="1055"
     inkscape:window-x="0"
     inkscape:window-y="0"
     inkscape:window-maximized="1"
     inkscape:current-layer="layer1"
     showgrid="false" /><defs
     id="defs1" /><g
     inkscape:label="Layer 1"
     inkscape:groupmode="layer"
     id="layer1"><g
       transform="matrix(0.0137291,0,0,-0.0137291,52.07701,177.38514)"
       fill="#000000"
       stroke="none"
       id="g2"
       style="fill:#2988e6;fill-opacity:1;stroke:#ffffff;stroke-width:259.658;stroke-linecap:round;stroke-linejoin:bevel;stroke-dasharray:none;stroke-opacity:1"><path
         d="M 3647.2803,12701.957 C 3051.4125,12645.035 2582.7115,12529.978 2084.9439,12319.245 1208.0976,11947.433 439.04049,11284.953 -85.371656,10450.496 -419.63899,9920.0283 -642.48389,9313.2604 -735.73962,8687.1147 c -27.85561,-181.6671 -67.82236,-633.4124 -67.82236,-753.3127 0,-58.1334 4.84445,-151.3891 12.11114,-208.3115 6.05556,-56.9223 16.95559,-168.3448 25.43338,-248.2783 36.3334,-381.5008 156.23365,-853.835 307.62283,-1217.1691 75.08904,-180.4558 213.15598,-457.8009 345.16736,-696.3902 C -35.715996,5424.3747 84.184244,5208.7966 153.21771,5085.263 382.11809,4672.2732 815.07725,3966.7647 1470.2896,2961.5404 2268.0857,1867.5558 3372.1309,532.64965 3943.9608,14.081815 4155.082,137.82901 3713.8895,105.40169 3947.322,16.868697 4459.7034,521.90516 4912.7983,1097.229 6525.0823,3032.1115 c 618.574,877.9224 1253.3063,1715.2509 1457.9845,2089.4849 150.1781,274.9228 545.0011,1081.5245 609.1901,1243.8136 105.3669,266.445 201.0448,628.5679 243.4338,924.0796 24.2223,165.9226 61.7668,561.9567 61.7668,657.6347 0,168.3448 -50.8668,656.4236 -92.0446,892.5907 -216.7894,1213.536 -972.5242,2353.193 -2027.4041,3056.851 -662.4791,442.056 -1481.1918,726.668 -2282.9491,794.49 -85.989,7.267 -193.7781,18.167 -238.5893,24.222 -117.478,16.956 -345.1673,12.112 -609.1901,-13.321 z"
         id="path1"
         style="fill:#2988e6;fill-opacity:1;stroke:#ffffff;stroke-width:314.44158753;stroke-linecap:round;stroke-linejoin:bevel;stroke-dasharray:none;stroke-opacity:1"
         sodipodi:nodetypes="ccccsccccccccccccsccccc" /></g><circle
       style="fill:#ffffff;fill-opacity:1;fill-rule:evenodd;stroke-width:0.0601415"
       id="path2-6"
       cx="107.44231"
       cy="70.645599"
       r="29.972902" /><circle
       style="fill:#2988e6;fill-opacity:1;fill-rule:evenodd;stroke:#ffffff;stroke-width:4;stroke-dasharray:none;stroke-opacity:1"
       id="path2-3-2-3"
       cx="105.92603"
       cy="193.15222"
       r="13.892083" /></g></svg>
