<?xml version="1.0" encoding="UTF-8"?>
<svg id="place-of-worship" width="15" height="15" version="1.1" viewBox="0 0 15 15" xmlns="http://www.w3.org/2000/svg">
 <path id="path9064" d="m7.506 0.4766a0.4 0.4 0 0 0-0.401 0.3984v0.641h-0.451a0.4 0.4 0 0 0-0.4 0.398 0.4 0.4 0 0 0 0.4 0.4h0.451v1.014l-1.605 1.606v2h4v-2l-1.594-1.594v-1.026h0.473a0.4 0.4 0 0 0 0.4-0.4 0.4 0.4 0 0 0-0.4-0.398h-0.473v-0.641a0.4 0.4 0 0 0-0.4-0.3984zm-2.006 6.957-1.5 1.5h7l-1.5-1.5h-4zm-3.5 1.918c-0.552 0-1 0.448-1 0.998v4.52h2v-4.52c0-0.55-0.448-0.998-1-0.998zm11 0c-0.55 0-1 0.448-1 0.998v4.52h2v-4.52c0-0.55-0.45-0.998-1-0.998zm-9 0.082v5.436h7v-5.436h-7z"/>
</svg>
