<?xml version="1.0" encoding="UTF-8"?>
<svg width="580" height="580" version="1.1" viewBox="0 0 580 580" xmlns="http://www.w3.org/2000/svg">
 <g stroke-width="1.186">
  <path d="m469.1 121.4c29.1 0 52.7-23.6 52.7-52.7s-23.6-52.69-52.7-52.69-52.6 23.59-52.6 52.69 23.5 52.7 52.6 52.7z"/>
  <path d="m374.3 58.16h-105.4c-12.6 0-21.1 8.43-21.1 21.08 0 12.64 8.5 21.06 21.1 21.06h105.4c12.7 0 21.1-8.42 21.1-21.06 0-12.65-8.4-21.08-21.1-21.08z"/>
  <path d="m437.5 163.5h-42.1l-42.2 42.2h84.3c12.7 0 21.1-8.4 21.1-21.1 0-12.6-8.4-21.1-21.1-21.1z"/>
  <path d="m260.5 60.27-78 35.83c-10.5 4.2-14.7 16.9-8.4 27.4s16.8 14.8 27.4 10.5l75.9-35.79c10.5-4.22 14.7-16.86 10.5-27.4s-16.9-14.76-27.4-10.54z"/>
  <path d="m403.8 70.81c-16.8-16.86-42.1-16.86-59 0l-107.5 107.5c-16.9 16.9-16.9 42.1 0 59 8.4 8.4 19 12.7 29.5 12.7 10.6 0 21.1-4.3 29.5-12.7l107.5-107.5c16.9-14.7 16.9-42.13 0-58.99z"/>
  <path d="m361.7 254.2-84.3-63.3c-12.7-10.5-33.8-8.4-44.3 4.3-10.5 12.6-8.4 33.7 4.2 44.2l71.7 52.7v111.7c0 16.9 14.7 31.6 31.6 31.6 16.8 0 31.6-14.7 31.6-31.6v-126.4c2.1-8.5-2.1-16.9-10.5-23.2z"/>
  <path d="m384.8 564c17.5 0 31.7-14.2 31.7-31.6 0-17.5-14.2-31.6-31.7-31.6-17.4 0-31.6 14.1-31.6 31.6 0 17.4 14.2 31.6 31.6 31.6z"/>
  <path d="m195.2 564c17.4 0 31.6-14.2 31.6-31.6 0-17.5-14.2-31.6-31.6-31.6-17.5 0-31.7 14.1-31.7 31.6 0 17.4 14.2 31.6 31.7 31.6z"/>
  <path d="m199.4 361.7 65.3-65.4-50.6-40-52.7 54.8h-71.62c-16.86 0-31.62 14.7-31.62 31.6s14.76 31.6 31.62 31.6h80.12c10.5 0 23.1-4.2 29.5-12.6z"/>
 </g>
 <path d="m458.6 458.6-33.7 16.9c-6.3 2.1-12.7 4.2-19 4.2h-231.8c-6.3 0-12.7-2.1-19-4.2l-33.7-16.9" stroke-linecap="round" stroke-miterlimit="10" stroke-width="42.15"/>
</svg>
