<?xml version="1.0" encoding="UTF-8"?>
<svg width="580" height="580" version="1.1" viewBox="0 0 580 580" xmlns="http://www.w3.org/2000/svg">
<path d="m94.7 264 70.8-17.1-48.1-74.2 28.2-4.5 34.8 75.9 61.5-6.6-17.2-86.3 27.7-2.3 7.1 87.4 76.4-1.1 6.6-86.3 27.2 1.7-17.8 84.6 62.6 6.1 34.8-74.7 32.1 6.1-49.8 71.4 72.5 16c-92.9 33.6-298 40.1-409 3.9z" fill-opacity=".5" />
<path d="m293 136c-28.3 0-184 2.2-253 48.6-38.8 25.9-38.8 62.9 0 88.8 69.6 46.4 224 48.7 253 48.7 29 0 184-2.3 253-48.7 38.8-25.9 38.8-62.9 0-88.8-69.6-46.5-225-48.6-253-48.6zm0 37.5c9.7 0 169 0.7 232 42.1 15.7 10.5 16 16.1 0 26.8-62.2 41.5-222 42.2-232 42.2-9.4 0-170-0.7-232-42.2-15.9-10.6-15.6-16.3 0-26.8 62.3-41.5 223-42.1 232-42.1z"/>
<path d="m536 382c-22.8 39.9-123 69.7-243 69.7-120 0-220-29.8-243-69.6-1.8 4.4-2.83 9.2-2.83 14.4 0 83.1 243 83.3 246 83.3 1.9 0 246-0.1 246-83.3 0-5.2-1.1-10-2.8-14.5z"/>
<path d="m30.4 228 30.5 178" stroke="#000" stroke-linecap="round" stroke-width="30"/>
<path d="m558 228-32.7 178" stroke="#000" stroke-linecap="round" stroke-width="30"/>
<path d="m388 410v76.1c0 8.5-10.9 15.3-24.4 15.3h-131c-13.6 0-24.5-6.8-24.5-15.3v-76.1c16.5-82.7 180-71.2 180 0z" />
</svg>
