<?xml version="1.0" encoding="UTF-8"?>
<svg width="580" height="580" version="1.1" viewBox="0 0 580 580" xmlns="http://www.w3.org/2000/svg">
 <path d="m282.6 512.5h35.9v-451.33h-35.9zm-107.6-368.9h-72.3c-23.02 0-39.52 17.9-43.93 33.1l-31.09 103.4c-8.19 20 21.84 32.9 28.39 9.4l28.36-94.6h15.53l-46.62 168.2h45.28v131.1c0 24.4 33.78 24.4 33.78 0v-131.7h16.9v132.4c0 23.5 33.8 23.3 33.8 0v-131.8h45.2l-47.3-168.2h16.3l28.3 94.6c7 24.7 37.3 8.5 28.4-9.4l-31.1-103.4c-4-13.1-22.9-33.1-47.9-33.1zm-34.5-7.4c48.8 0 48.9-73.67 0-73.67-47.67 0-47.74 73.67 0 73.67zm316-0.7c47.2 0 48.3-72.97 0-72.97-48.1 0-47.2 72.97 0 72.97zm48 7.4h-96.6c-25.9 0-47.3 20.4-47.3 48v112.1c0 22.2 29 23 29 0v-109.4h17.6v297.3c0 27.9 40.5 28.1 40.5 0v-172.3h17.6v172.3c0 28.3 41.2 27.8 41.2 0v-297.3h16.9v109.4c0 23.5 28.4 23.5 28.4 0v-111.4c0-24-17-48.7-47.3-48.7z"/>
</svg>
