<?xml version="1.0" encoding="UTF-8"?>
<svg width="48" height="48" version="1.1" viewBox="0 0 48 48" xmlns="http://www.w3.org/2000/svg">
 <path d="m11.68 41.06-3.962 6.752 34.33-0.02584-4.024-6.743"/>
 <path d="m13.95 0.4332c-2.09 0-4.108 0.8798-5.592 2.445-1.485 1.565-2.319 3.688-2.319 5.901v24.25c0 3.6 2.768 6.51 6.181 6.51h24.73c3.42 0 6.18-2.91 6.18-6.51v-24.25c0-2.213-0.83-4.336-2.31-5.901-1.49-1.565-3.5-2.445-5.6-2.445zm-1.73 6.519h24.73v13.04h-24.73zm6.18 22.82c0 1.8-1.38 3.26-3.09 3.26-1.7 0-3.09-1.46-3.09-3.26s1.39-3.26 3.09-3.26c1.71 0 3.09 1.46 3.09 3.26zm18.55 0c0 1.8-1.38 3.26-3.09 3.26s-3.09-1.46-3.09-3.26 1.38-3.26 3.09-3.26 3.09 1.46 3.09 3.26z" stroke-width="1.587"/>
</svg>
