<?xml version="1.0" encoding="UTF-8"?>
<svg width="48" height="48" fill="none" version="1.1" viewBox="0 0 48 48" xmlns="http://www.w3.org/2000/svg">
 <path d="m19.79 8.421 2.1-8.421h-4.21l-2.1 8.421h-1.23c-1.91 0-3.74 0.757-5.086 2.109-1.349 1.34-2.106 3.17-2.106 5.08v22.28c0 1.56 0.847 2.92 2.106 3.65v1.62c0 1.74 1.406 3.15 3.156 3.15s3.16-1.41 3.16-3.15v-1.06h16.84v1.06c0 1.74 1.41 3.15 3.16 3.15s3.16-1.41 3.16-3.15v-1.62c1.26-0.73 2.1-2.09 2.1-3.65v-22.28c0-1.91-0.76-3.74-2.1-5.08-1.35-1.352-3.18-2.109-5.09-2.109h-3.33l2.1-8.421h-4.21l-2.1 8.421zm16.84 8.419h-25.26v12.63h25.26zm-23.16 21.05c1.16 0 2.11-0.94 2.11-2.1s-0.95-2.11-2.11-2.11c-1.15 0-2.1 0.95-2.1 2.11s0.95 2.1 2.1 2.1zm23.16-2.1c0 1.16-0.95 2.1-2.1 2.1-1.16 0-2.11-0.94-2.11-2.1s0.95-2.11 2.11-2.11c1.15 0 2.1 0.95 2.1 2.11z" clip-rule="evenodd" fill="#000" fill-rule="evenodd" stroke-width="1.053"/>
</svg>
