<?xml version="1.0" encoding="UTF-8"?>
<svg width="48" height="48" fill="none" version="1.1" viewBox="0 0 48 48" xmlns="http://www.w3.org/2000/svg">
 <g fill="#000">
  <path d="m28 4c0 1.105-0.8954 2-2 2s-2-0.8954-2-2 0.8954-2 2-2 2 0.8954 2 2z"/>
  <path d="m22 6c0 1.105-0.8954 2-2 2s-2-0.8954-2-2 0.8954-2 2-2 2 0.8954 2 2z"/>
  <path d="m42.43 7.952c1.078-0.2396 1.758-1.308 1.518-2.386s-1.308-1.758-2.386-1.519l-36 8c-1.078 0.2396-1.758 1.308-1.519 2.386 0.2396 1.078 1.308 1.758 2.386 1.518l36-8z"/>
  <path d="m4 28c0-4.418 3.582-8 8-8h4.558l1.531-4.59 4.554-1.012-1.868 5.602h6.45l-2.054-6.164 3.926-0.8723 2.344 7.036h4.558c4.418 0 8 3.582 8 8v12c0 2.209-1.791 4-4 4h-32c-2.209 0-4-1.791-4-4v-12zm28-4h4c2.209 0 4 1.791 4 4v8h-8v-12zm-20 0c-2.209 0-4 1.791-4 4v8h8v-12h-4zm8 0h8v16h-8v-16z" clip-rule="evenodd" fill-rule="evenodd"/>
 </g>
</svg>
