<?xml version="1.0" encoding="UTF-8"?>
<svg id="waste-basket" width="15" height="15" version="1.1" viewBox="0 0 15 15" xmlns="http://www.w3.org/2000/svg">
 <path d="m12.41 6.335-1.34 7.385c-0.04 0.23-0.25 0.41-0.49 0.41h-6.16c-0.241 0-0.447-0.18-0.49-0.41l-1.34-7.385c-0.054-0.334 0.219-0.578 0.49-0.58h8.83c0.34-4e-3 0.54 0.306 0.5 0.58zm0.59-2.56c0 0.276-0.22 0.5-0.5 0.5h-10c-0.276 0-0.5-0.224-0.5-0.5 0-0.277 0.224-0.912 0.5-0.912h2.5v-1.5c0-0.276 0.224-0.5003 0.5-0.5003h4c0.276 0 0.5 0.2243 0.5 0.5003v1.5h2.5c0.28 0 0.5 0.635 0.5 0.912zm-4-0.912v-1h-3v1z"/>
</svg>
