<?xml version="1.0" encoding="UTF-8"?>
<svg id="emoji" version="1.1" viewBox="0 0 72 72" xmlns="http://www.w3.org/2000/svg">
 <g id="line-supplement" transform="matrix(1.361 0 0 1.361 -12.33 -12.06)" fill="none" stroke="#000" stroke-linecap="round" stroke-width="2">
  <polyline points="37.7 22 33.7 22 33.7 27.75 37.7 27.75" stroke-linejoin="round"/>
  <line x1="33.7" x2="36.7" y1="24.25" y2="24.25" stroke-miterlimit="10"/>
 </g>
 <g id="color" transform="matrix(1.095 0 0 1.095 -3.385 -3.594)">
  <g stroke-width="1.243">
   <path d="m26.07 40.51-19.09 16.03c-0.4352-0.771-0.7087-0.2362-0.7087-1.33v-32.96z" fill="#57bff5"/>
   <rect x="18.15" y="18.25" width="35.49" height="3.885" fill="#d0cfce"/>
   <path d="m67.25 19.64v33.02c0 1.069-0.2487 2.051-0.6838 2.822l-15.25-13.97-2.008 1.523-3.042-4.02z" fill="#57bff5"/>
   <path d="m24.95 37.96 5.558 5.135c0.2984 0.2735 0.5968 0.5098 0.8952 0.7087 3.021 2.238 6.54 2.238 9.549-0.01243 0.286-0.1989 0.5844-0.4476 0.8579-0.6963l5.595-5.16" fill="#d0cfce"/>
  </g>
  <g fill="#57bff5">
   <path d="m24.95 37.96 5.558 5.135c0.2984 0.2735 0.5968 0.5098 0.8952 0.7087 3.021 2.238 6.54 2.238 9.549-0.01243 0.286-0.1989 0.5844-0.4476 0.8579-0.6963l5.595-5.16 19.16 17.54c-0.5222 0.9574-1.33 1.579-2.226 1.579h-56.27c-0.8703 0-1.666-0.5844-2.201-1.517l19.08-17.58" stroke="#57bff5" stroke-linecap="round" stroke-linejoin="round" stroke-width="2.238"/>
   <rect x="16.69" y="37.03" width="8.703" height="6.217" stroke="#57bff5" stroke-linecap="round" stroke-linejoin="round" stroke-width="2.487"/>
   <path d="m51.21 41.43 15.35 14.05c-0.5222 0.9574-1.33 1.579-2.226 1.579h-56.27c-0.8703 0-1.666-0.5844-2.201-1.517l15.02-13.83" stroke-width="1.243"/>
   <path d="m54.53 18.25s10.67 0.4866 11.17 1.183c0.06217 0.0746-23.28 23.96-23.56 24.16-3.009 2.25-6.527 2.25-9.549 0.01243-0.2984-0.1989-0.5968-0.4352-0.8952-0.7087l-5.558-5.135-19.79-18.26c0.04973-0.0746 0.1119-0.1616 0.1741-0.2487 0.5222-0.746 1.231-0.8828 2.002-0.8828h10.54" stroke-width="1.243"/>
  </g>
 </g>
 <g id="line" transform="matrix(1.361 0 0 1.361 -12.33 -12.06)" fill="none" stroke-linecap="round" stroke-linejoin="round" stroke-width="2">
  <path d="m20.07 42.8-8.784 8.091c-0.35-0.6201-0.57-1.44-0.57-2.32v-26.11c0-0.4348-0.0379-0.2318 0.2817 0.0631l15.64 14.23" stroke="#185abd"/>
  <path d="m43.78 37.6 16.88-16.04v27.01c0 0.86-0.2 1.65-0.55 2.27l-12.27-11.23" stroke="#185abd"/>
  <path d="m26.64 36.75 4.47 4.13c0.24 0.22 0.48 0.41 0.72 0.57 2.43 1.8 5.26 1.8 7.68-0.01 0.23-0.16 0.47-0.36 0.69-0.56l4.5-4.15" stroke="#000"/>
  <g stroke="#185abd">
   <path d="m47.76 39.54 12.35 11.3c-0.42 0.77-1.07 1.27-1.79 1.27h-45.26c-0.7 0-1.34-0.47-1.77-1.22l12.08-11.13"/>
   <path d="m49.48 20.9h9.46c2.618-0.0539 1.365 1.322 1.405 1.392l-15.65 14.44-4.5 4.15c-0.22 0.2-0.46 0.4-0.69 0.56-2.42 1.81-5.25 1.81-7.68 0.01-0.24-0.16-0.48-0.35-0.72-0.57l-4.47-4.13-15.92-14.69c2e-3 -0.8682 0.6193-1.16 1.75-1.16h39.26"/>
   <path d="m13.19 52.11s-2.751 0.14-2.469-4.485"/>
  </g>
 </g>
</svg>
